{"title":"August Burns Red - Rescue &amp; Restore [FLAC]","uid":8615168,"size":372293988,"categoryP":"audio","categoryS":"flac","magnet":"?xt=urn:btih:af07a0037eb0821bb6bf84707d1823f20fb7506c&amp;dn=August+Burns+Red+-+Rescue+%26amp%3B+Restore+%5BFLAC%5D&amp;tr=udp%3A%2F%2Ftracker.openbittorrent.com%3A80&amp;tr=udp%3A%2F%2Fopen.demonii.com%3A1337&amp;tr=udp%3A%2F%2Ftracker.coppersurfer.tk%3A6969&amp;tr=udp%3A%2F%2Fexodus.desync.com%3A6969","seeders":1,"leechers":0,"uploader":"JohnHolmesII","files":13,"time":1372234422,"description":"I ripped it myself, so no re-up crap.\n\nIt is the highest quality and compression FLAC can offer, along with a high quality cover scan, so enjoy!\n\nTracklist:\n--------------------------------------------------------------\n\n1)  Provision\n\n2)  Treatment\n\n3)  Spirit Breaker\n\n4)  Count It All As Lost\n\n5)  Sincerity\n\n6)  Creative Captivity\n\n7)  Fault Line\n\n8)  Beauty In Tragedy\n\n9)  Animals\n\n10) Echoes\n\n11) The First Step\n\n\nLog:\n--------------------------------------------------------------\n\nExact Audio Copy V1.0 beta 3 from 29. August 2011\n\nEAC extraction logfile from 25. June 2013, 22:53\n\nAugust Burns Red / Rescue &amp; Restore\n\nUsed drive  : ASUS    DRW-24B1ST   c   Adapter: 1  ID: 1\n\nRead mode               : Secure\nUtilize accurate stream : Yes\nDefeat audio cache      : No\nMake use of C2 pointers : Yes\n\nCombined read/write offset correction       : 0\nOverread into Lead-In and Lead-Out          : No\nFill up missing offset samples with silence : Yes\nDelete leading and trailing silent blocks   : No\nNull samples used in CRC calculations       : Yes\nUsed interface                              : Native Win32 interface for Win NT &amp; 2000\nGap handling                                : Not detected, thus appended to previous track\n\nUsed output format              : User Defined Encoder\nSelected bitrate                : 1024 kBit/s\nQuality                         : High\nAdd ID3 tag                     : No\nCommand line compressor         : C:Program Files (x86)Exact Audio CopyFLACFLAC.EXE\nAdditional command line options : -8 -e -m -V %source% -o %dest%\n\n\nTOC of the extracted CD\n\n     Track |   Start  |  Length  | Start sector | End sector \n    ---------------------------------------------------------\n        1  |  0:00.00 |  4:40.13 |         0    |    21012   \n        2  |  4:40.13 |  5:14.34 |     21013    |    44596   \n        3  |  9:54.47 |  4:51.40 |     44597    |    66461   \n        4  | 14:46.12 |  4:09.48 |     66462    |    85184   \n        5  | 18:55.60 |  3:17.59 |     85185    |   100018   \n        6  | 22:13.44 |  4:42.17 |    100019    |   121185   \n        7  | 26:55.61 |  4:03.06 |    121186    |   139416   \n        8  | 30:58.67 |  4:51.13 |    139417    |   161254   \n        9  | 35:50.05 |  3:29.01 |    161255    |   176930   \n       10  | 39:19.06 |  4:23.38 |    176931    |   196693   \n       11  | 43:42.44 |  4:24.47 |    196694    |   216540   \n\n\nTrack  1\n\n     Filename C:UsersStephenMusicConversionsAugust Burns Red-Provision.wav\n\n     Peak level 90.5 %\n     Extraction speed 11.9 X\n     Track quality 100.0 %\n     Copy CRC F1DAFA8E\n     Copy OK\n\nTrack  2\n\n     Filename C:UsersStephenMusicConversionsAugust Burns Red-Treatment.wav\n\n     Peak level 90.5 %\n     Extraction speed 17.9 X\n     Track quality 100.0 %\n     Copy CRC AD0A9678\n     Copy OK\n\nTrack  3\n\n     Filename C:UsersStephenMusicConversionsAugust Burns Red-Spirit Breaker.wav\n\n     Peak level 90.5 %\n     Extraction speed 19.6 X\n     Track quality 100.0 %\n     Copy CRC 0B1885DC\n     Copy OK\n\nTrack  4\n\n     Filename C:UsersStephenMusicConversionsAugust Burns Red-Count It All As Lost.wav\n\n     Peak level 90.5 %\n     Extraction speed 20.9 X\n     Track quality 100.0 %\n     Copy CRC 706774CA\n     Copy OK\n\nTrack  5\n\n     Filename C:UsersStephenMusicConversionsAugust Burns Red-Sincerity.wav\n\n     Peak level 90.5 %\n     Extraction speed 21.8 X\n     Track quality 100.0 %\n     Copy CRC 7837B927\n     Copy OK\n\nTrack  6\n\n     Filename C:UsersStephenMusicConversionsAugust Burns Red-Creative Captivity.wav\n\n     Peak level 90.5 %\n     Extraction speed 22.9 X\n     Track quality 100.0 %\n     Copy CRC 33670B12\n     Copy OK\n\nTrack  7\n\n     Filename C:UsersStephenMusicConversionsAugust Burns Red-Fault Line.wav\n\n     Peak level 90.5 %\n     Extraction speed 23.4 X\n     Track quality 100.0 %\n     Copy CRC 0CA3CE22\n     Copy OK\n\nTrack  8\n\n     Filename C:UsersStephenMusicConversionsAugust Burns Red-Beauty In Tragedy.wav\n\n     Peak level 90.5 %\n     Extraction speed 25.0 X\n     Track quality 100.0 %\n     Copy CRC 91B892A9\n     Copy OK\n\nTrack  9\n\n     Filename C:UsersStephenMusicConversionsAugust Burns Red-Animals.wav\n\n     Peak level 90.5 %\n     Extraction speed 25.4 X\n     Track quality 100.0 %\n     Copy CRC 435FC6BF\n     Copy OK\n\nTrack 10\n\n     Filename C:UsersStephenMusicConversionsAugust Burns Red-Echoes.wav\n\n     Peak level 90.5 %\n     Extraction speed 26.5 X\n     Track quality 100.0 %\n     Copy CRC FB05C7ED\n     Copy OK\n\nTrack 11\n\n     Filename C:UsersStephenMusicConversionsAugust Burns Red-The First Step.wav\n\n     Peak level 90.5 %\n     Extraction speed 27.4 X\n     Track quality 100.0 %\n     Copy CRC D88D80CB\n     Copy OK\n\nNo errors occurred\n\nEnd of status report","torrent":{"xt":"urn:btih:af07a0037eb0821bb6bf84707d1823f20fb7506c","amp;dn":"August+Burns+Red+-+Rescue+%26amp%3B+Restore+%5BFLAC%5D","amp;tr":["udp%3A%2F%2Ftracker.openbittorrent.com%3A80","udp%3A%2F%2Fopen.demonii.com%3A1337","udp%3A%2F%2Ftracker.coppersurfer.tk%3A6969","udp%3A%2F%2Fexodus.desync.com%3A6969"],"infoHash":"af07a0037eb0821bb6bf84707d1823f20fb7506c","infoHashBuffer":{"type":"Buffer","data":[175,7,160,3,126,176,130,27,182,191,132,112,125,24,35,242,15,183,80,108]},"announce":[],"urlList":[]}}